<?xml version="1.0" standalone="no"?><!DOCTYPE svg PUBLIC "-//W3C//DTD SVG 1.1//EN" "http://www.w3.org/Graphics/SVG/1.1/DTD/svg11.dtd"><svg t="1552748067737" class="icon" style="" viewBox="0 0 1024 1024" version="1.1" xmlns="http://www.w3.org/2000/svg" p-id="2877" xmlns:xlink="http://www.w3.org/1999/xlink" width="18" height="18"><defs><style type="text/css"></style></defs><path d="M704 708.266667c8.533333-8.533333 21.333333-8.533333 29.866667 0 8.533333 8.533333 8.533333 21.333333 0 29.866666-59.733333 59.733333-140.8 89.6-221.866667 89.6-174.933333 0-320-145.066667-320-320S337.066667 192 512 192s320 145.066667 320 320c0 29.866667-4.266667 64-12.8 89.6-4.266667 12.8-17.066667 17.066667-25.6 12.8-12.8-4.266667-17.066667-17.066667-12.8-25.6 8.533333-25.6 12.8-51.2 12.8-81.066667 0-153.6-123.733333-277.333333-277.333333-277.333333s-281.6 128-281.6 281.6 123.733333 277.333333 277.333333 277.333333c72.533333 0 140.8-29.866667 192-81.066666zM482.133333 512L392.533333 422.4c-8.533333-8.533333-8.533333-21.333333 0-29.866667s21.333333-8.533333 29.866667 0l89.6 89.6 89.6-89.6c8.533333-8.533333 21.333333-8.533333 29.866667 0s8.533333 21.333333 0 29.866667L541.866667 512l89.6 89.6c8.533333 8.533333 8.533333 21.333333 0 29.866667s-21.333333 8.533333-29.866667 0L512 541.866667l-89.6 89.6c-8.533333 8.533333-21.333333 8.533333-29.866667 0s-8.533333-21.333333 0-29.866667l89.6-89.6z" p-id="2878"></path></svg>